<?xml version="1.0" encoding="utf-8"?>
<svg viewBox="359.631 173.662 180.819 129.968" width="180.819" height="129.968" xmlns="http://www.w3.org/2000/svg">
  <defs>
    <style type="text/css">
	.st0{fill:#FBB040;stroke:#FBB040;stroke-width:0.223;stroke-miterlimit:10;}
	.st1{fill:none;stroke:#FBB040;stroke-width:0.3142;stroke-miterlimit:10;}
	.st2{fill:#FFFFFF;stroke:#FBB040;stroke-width:0.3142;stroke-miterlimit:10;}
	.st3{fill:#122B4D;}
	.st4{fill:#C0BCA6;}
	.st5{fill:#FCFBF8;}
	.st6{fill:#FAF8F4;}
	.st7{fill:#FFFFFF;}
</style>
  </defs>
  <path class="st0" d="M451.95,293.53h-46.79c-1.52,0-2.76-1.24-2.76-2.76v-68.44c0-1.52,1.24-2.76,2.76-2.76h46.79 c1.52,0,2.76,1.24,2.76,2.76v68.44C454.71,292.29,453.47,293.53,451.95,293.53z" style="fill: rgb(225, 124, 0);"/>
  <line class="st1" x1="454.47" y1="222.34" x2="454.6" y2="290.88"/>
  <path class="st2" d="M454.75,223.37c0,0-21.86-17.78-48.89-0.84v67.61c0,0,21.65-14.94,48.12,0.37c0.21,0.12,0.42,0.24,0.63,0.37" style=""/>
  <path class="st2" d="M405.85,290.88h47.32C453.18,290.88,431.81,281.55,405.85,290.88z"/>
  <line class="st1" x1="454.71" y1="223.37" x2="454.47" y2="290.77"/>
  <g>
    <line class="st1" x1="414.04" y1="230.29" x2="444.1" y2="230.29"/>
    <line class="st1" x1="414.04" y1="238.91" x2="444.1" y2="238.69"/>
    <line class="st1" x1="414.04" y1="247.75" x2="444.1" y2="247.53"/>
    <line class="st1" x1="414.04" y1="256.61" x2="444.1" y2="256.61"/>
    <line class="st1" x1="414.04" y1="265.88" x2="444.1" y2="265.66"/>
  </g>
  <g>
    <path class="st3" d="M500.42,173.7c0,0-12.93,3.26-8.84,17.04c0,0,4.06,8.21,12.14,1.08c0,0,6.72-6.96,10.68-5.11 c0,0,1.03-0.1,6.45,3.36c0,0,1.35,0.62,4.22,0.21c0,0-7.96,7.89-8.97,18.24c0,0-2.95-12.26-12.42-7.88c0,0-4.37,2.19-7.32,9.81 c0,0,10.73-6.63,17.05,2.58c0,0,0.41,0.43-0.04,0.96c0,0-4.21,3.87-3.94,9.93c0,0-3.03-9.96-9.62-8.69c0,0-5.89,0.57-5.11,8.18 c0,0-0.24,5,6.38,9.98c0,0,2.25,1.88,6.54,3.51c0,0,5.1,1.99,8.15,5.27c0,0,2.39,2.46,3.65,6.41l0.43,1.91c0,0-0.13,0.75,0.88,0.7 c0,0,1.32-0.23,2.01,0.13c0,0,0.58,0.32,0.83-0.51c0,0,0.98-3.42,2.1-4.75c0,0,1.34-2.36,4.29-3.02c0,0,4.33-1.49,7.7,3.6 c0,0,2.38,3.57,1.27,8.09c0,0-0.44,1.92-1.36,2.79c0,0,0.31-1.49-0.33-3.64c0,0-0.59-2.69-3.16-3.53c0,0-2.42-0.54-2.71,1.9 c0,0-0.37,1.48,2.07,4.76c0,0,0.82,1.05,2.13,2.8c0,0,1.6,1.92,1.23,5.05c0,0-0.1,3.26-3.28,4.59c0,0-3.94,1.83-7.28-2.58 l-1.41-2.36c0,0,2.18,1.39,4.89,0.91c0,0,2.58-0.35,3.21-2.72c0,0,0.67-2.61-2.02-5.12c0,0-1.78-1.51-3.61-2.12 c0,0,1.94,6.31-4.77,7.76c0,0-1.65,0.3-2.98-0.08c0,0-0.57-0.3-0.92,0.6c0,0-1.16,2.1-2.32,3.48c0,0-2.41,3.19-4.96,4.83 c0,0-4.2,3.14-9.54,4.37c0,0-4.04,0.97-6.8,0.96c0,0,0.04,0.22,0.54,0.5l8.95,5.01c0,0,0.48,0.46,0.9-0.22c0,0,3.71-5.43,5.43-6.59 c0,0,3.96-3.13,8.24-0.49c0,0,3.41,1.81,4,7.01c0,0,0.39,3.49-1.39,6.65c0,0-0.24-5.27-2.66-6.91c0,0-2.58-2.01-5.24,0.28 c0,0-1.88,1.67-0.43,4.45c0,0,0.89,1.54,2.88,2.96c0,0,2.65,1.6,3.19,4.08c0,0,0.83,2.65-0.95,5.32c0,0-1.02,2-5.18,2.53 c0,0-4.08,0.91-7.47-2.25c0,0-0.47-0.51-1.05-0.99c0,0-0.56-0.58-2-0.02c0,0-2.23,0.77-4.22-0.33c0,0-1.66-0.58-3.29-3.44 c0,0-0.79-1.31-1.36-3.64l-0.32-1.73c0,0-0.01-0.57-0.67-0.86c0,0-2.7-1.18-4.27-1.96c0,0-5.48-2.67-6.15-3.26 c0,0-4.34-2.55-7.31-4.83c0,0-4.86-3.67-6.87-5.63c0,0-7.19-6.44-9.59-11.91c0,0-3.16-6.02-3.03-13.2c0,0,0.12-4.49,0.84-11.85 c0,0,0.63-9.48-4.25-15.19c0,0-7.14-8.13-16.01-3.12c0,0-5.12,3.15-5.12,9.51c0,0-0.39,5.93,2.68,10.95c0,0,5.63,10.69,6.14,13.6 c0,0,2.42,10.59-2.86,17.82c0,0-4.74,6.31-13.37,11.2c0,0-6.71,3.82-6.36,6.54c0,0,0.31,2.71,5.51,2.75c0,0,4.14,0.41,12.1-3.52 c0,0,7.54-4.18,12.15-2.19c0,0,5.12,2.05,4.39,8.79c0,0-0.83,4.3-6.05,4.25c0,0,3.36-1.03,2.41-5.6c0,0-0.99-2.98-4-2.9 c0,0,2.05,4.04,0.21,6.99c0,0-2.87,5.16-7.44,2.93c0,0-1.69-1.27-2.04-2.68c0,0,2.92,1.45,4.01,0.06c0,0,2.08-2.03,1.42-4.22 c0,0-1.38-4.06-5.33-0.5c0,0-3.16,4.56-4.59,5.99c0,0-0.56,0.99-3.99,0.99l-23.39,0.12l-1.27,0.01c0,0-0.48-0.03-0.82-0.4 c0,0-1.87-2.2-3.94-3.12c0,0-2.54-1.49-6.27-1.9c0,0-0.78-0.06-0.94-0.44c0,0-0.05-2.16,2.63-4.37c0,0,1.72-1.3,3.27-1.85 c0,0-6.23-1.49-10.67-4.02c0,0-7.34-4.11-10.22-7.52c0,0-7.68-7.56-10.49-15c0,0-3.52-7.12-4.28-14.94c0,0-0.97-8.21,2.62-15.38 c0,0,3.01-6.89,8.78-10.11c0,0,5.01-3.05,10.49-1.56c0,0,7.83,0.38,10.43,12.21c0,0-4.47-7.58-9.39-8.67c0,0,0.6,1.87,0.24,3.53 c0,0-1.85-2.29-4.98-3.49c0,0,1.61,3.5,1.55,5.26c0,0-3.07-2.67-5.48-2.48c0,0,2.63,2.37,3.22,5.38c0,0-3.05-1.91-5.49-0.86 c0,0,3.7,2.2,4.44,4.89c0,0-3.44-1.02-5.32,0.61c0,0,3.88,1.34,5.36,3.7c0,0-4.38-0.18-5.1,2.66c0,0,3.85-0.01,6.08,2.62 c0,0-4.06,0.91-4.96,4.52c0,0,3.7-1.85,6.71,0.05c0,0-4.49,2.26-4.35,6.75c0,0,5.07-2.89,7.11-1.49c0,0-4.4,3.28-3.83,7.15 c0,0,4.06-3.93,7.51-2.76c0,0-3.88,2.93-3.39,6.98c0,0,4.07-4.5,7.49-3.87c0,0-3.26,4.2-2.56,7.26c0,0,3.67-5.36,6.8-5.35 c0,0-1.99,3.98-1.79,7.22c0,0,2.95-5.09,7.54-6.53c0,0-1.59,4.52-0.01,7.88c0,0,1.87-6.23,5.28-8.47c0,0-0.18,5.32,3.25,7.26 c0,0,0.04-8.15,2.31-10.21c0,0,1.29,5.23,4.64,6.45c0,0-2.42-7.25-1.86-9.44c0,0,3.83,4.34,6.93,3.94c0,0-7.09-6.58-9.27-12.98 c0,0,3.73,2.86,7.6,2.44c0,0-10.21-7.55-11.43-17.43c0,0,3.87,5.44,8.07,5.75c0,0-10.18-10.81-7.57-20.95c0,0,2.58,7.94,6.65,8.71 c0,0-7.67-11-1.35-20.85c0,0-1.26,6.17,1.83,9.16c0,0-0.22-9.49,3.01-13.61c0,0,3.21-6.39,8.63-7.54c0,0-3.42,4.2-3.37,8.85 c0,0,3.84-7.39,9.06-10.16c0,0,5.48-3.16,11.28-1.66c0,0-6.77,3.47-7.27,7.84c0,0,10.05-7.37,16.83-5.59c0,0,4.62,0.51,7.95,3.72 c0,0-6.37-1.34-10.1,4.21c0,0,5.29-1.77,10.38-1.14c0,0,5.41-0.03,8.53,6.92c0,0-7.46-4.59-10.59-1.11c0,0,8.12,0.92,10.99,5.15 c0,0,2.49,3.38,2.64,6.17c0,0-2.72-4.46-7.13-5.29c0,0,3.53,4.12,4.68,5.83c0,0,1.77,2.87,2.19,5.04c0,0,2.07,7.26,5.48,8.8 c0,0,2.53,1.57,4.62,1.53c0,0-5.72-3.94-7.28-10.11c-1.56-6.17-1.49-8.09-1.49-8.09s3.89,4.07,5.77,4.44c0,0-5.52-6.36-7.1-10.52 c0,0-2.74-6.9-0.85-12.28c0,0,2.48-7.11,6.22-10.68c0,0-2.46,7.28-1.11,11.4c0,0,1.33,4.82,5.29,7.73c0,0,0.01,0.16,0.34,0.02 l-1.75-3.54c0,0-1.77-4.96-1.52-7.43c0,0-0.07-5.79,1.98-8.88c0,0,3.57-5.55,7.52-7.81C488.4,176.81,494.87,173.26,500.42,173.7z" style="fill: rgb(255, 198, 0);"/>
    <path class="st4" d="M540.45,294.84c0,2.93,0,5.86,0,8.79c-0.03,0-0.05,0-0.08,0c0-2.93,0-5.87,0-8.8 C540.4,294.83,540.42,294.84,540.45,294.84z"/>
    <path class="st5" d="M517.63,191.54c-0.04,1.04-0.54,1.75-1.57,2.11c-1.5,0.52-2.94,0.37-4.16-0.71c-1.15-1.03-0.94-2.69,0.37-3.49 c1.42-0.87,3.8-0.5,4.91,0.76C517.51,190.59,517.65,191.03,517.63,191.54z"/>
    <path class="st5" d="M497.57,197.62c-0.85,1.4-1.82,2.69-3.15,3.65c-0.32,0.23-0.68,0.45-1.05,0.6c-1.2,0.47-2.09,0.09-2.62-1.11 c-0.69-1.54-0.66-3.2-0.7-4.84c-0.01-0.51,0.04-1.02,0.08-1.8c0.61,1.7,1.53,2.86,2.97,3.52 C494.57,198.3,496.05,198.27,497.57,197.62z"/>
    <path class="st6" d="M521.99,257.9c-0.02,1.2-0.79,2.27-1.8,2.48c-0.25,0.05-0.61,0.14-0.48-0.33c0.38-1.37,0.34-2.77,0.3-4.17 c-0.02-0.64,0.24-0.6,0.65-0.36C521.6,256.03,522.03,256.84,521.99,257.9z"/>
    <path class="st7" d="M488.53,242.96c0.7,1.86,1.08,3.75,1.29,5.67c0.2,1.8,0.22,3.61-0.29,5.38c-0.81,2.77-2.86,3.91-5.66,3.19 c-2.14-0.55-3.66-1.87-4.8-3.7c-1.6-2.55-2.42-5.38-3.03-8.28c-0.5-2.37-0.49-6.68-0.34-6.39c1.07,2.13,2.12,4.26,4,5.82 c2.18,1.82,4.72,1.81,6.92-0.01C487.26,244.12,487.87,243.55,488.53,242.96z"/>
    <path class="st7" d="M515.19,293.88c0.01,2.59-1.83,3.99-4.43,3.39c-1.15-0.26-2.24-0.74-3.25-1.37c-0.18-0.11-0.52-0.16-0.17-0.49 c1.57-1.43,2.23-3.32,2.59-5.33c0.1-0.54,0.25-0.56,0.72-0.45c1.75,0.4,3.22,1.19,4.16,2.78 C515.08,292.87,515.24,293.39,515.19,293.88z" style="fill: rgb(0, 46, 108);"/>
    <ellipse class="st7" cx="514.4" cy="191.82" rx="3.2" ry="2.37" style="fill: rgb(0, 46, 108);"/>
    <path class="st7" d="M490.13,194.49c0,0-1.04,5.85,1.53,7.73c0,0,2.06,1.2,5.06-2.95l0.85-1.29 C497.58,197.98,491.46,200.16,490.13,194.49z" style="fill: rgb(0, 46, 108);"/>
    <path class="st7" d="M520.01,255.88c0,0,0.14,2.64-0.23,3.89c0,0-0.52,0.79,0.41,0.62c0,0,1.76-0.26,1.8-2.48 c0,0,0.27-1.49-1.33-2.39C520.66,255.51,519.98,254.85,520.01,255.88z" style="fill: rgb(0, 46, 108);"/>
    <path class="st7" d="M496.58,289.71l4.18,1.33c0,0,0.44,0,0.29,0.46l-0.49,1.25c0,0-0.43,0.91-1.59,0.74 C498.98,293.49,497.33,292.94,496.58,289.71z"/>
  </g>
  <path class="st0" d="M457.22,293.53h46.79c1.52,0,2.76-1.24,2.76-2.76v-68.44c0-1.52-1.24-2.76-2.76-2.76h-46.79 c-1.52,0-2.76,1.24-2.76,2.76v68.44C454.47,292.29,455.71,293.53,457.22,293.53z" style="fill: rgb(225, 124, 0);"/>
  <path class="st2" d="M454.71,223.37c0,0,21.86-17.78,48.89-0.84v67.61c0,0-21.65-14.94-48.12,0.37c-0.21,0.12-0.42,0.24-0.63,0.37"/>
  <path class="st2" d="M503.6,290.88h-47.32C456.28,290.88,477.64,281.55,503.6,290.88z"/>
  <g>
    <line class="st1" x1="465.66" y1="230.29" x2="495.72" y2="230.29"/>
    <line class="st1" x1="465.66" y1="238.91" x2="495.72" y2="238.69"/>
    <line class="st1" x1="465.66" y1="247.75" x2="495.72" y2="247.53"/>
    <line class="st1" x1="465.66" y1="256.61" x2="495.72" y2="256.61"/>
    <line class="st1" x1="465.66" y1="265.88" x2="495.72" y2="265.66"/>
  </g>
</svg>